<svg width="2854" height="10332" viewBox="0 0 2854 10332" fill="none" xmlns="http://www.w3.org/2000/svg">
<g clip-path="url(#clip0_48_44)">
<line x1="1110" y1="-12.0546" x2="1112.18" y2="1187.94" stroke="white" stroke-width="60"/>
<line x1="1118.15" y1="1169.02" x2="357.197" y2="2096.9" stroke="white" stroke-width="60"/>
<line x1="1110" y1="-12.0546" x2="1112.18" y2="1187.94" stroke="white" stroke-width="60"/>
<line x1="1830" y1="-0.054595" x2="1832.18" y2="1199.94" stroke="white" stroke-width="60"/>
<line x1="1840.19" y1="1179.03" x2="1094.2" y2="2088.51" stroke="white" stroke-width="60"/>
<line x1="1287.85" y1="4004.15" x2="359.976" y2="3243.2" stroke="white" stroke-width="60"/>
<line x1="1985.46" y1="3989.19" x2="1075.97" y2="3243.2" stroke="white" stroke-width="60"/>
<line x1="1830" y1="-0.054595" x2="1832.18" y2="1199.94" stroke="white" stroke-width="60"/>
<line x1="364" y1="2068.95" x2="366.184" y2="3268.94" stroke="white" stroke-width="60"/>
<line x1="1084" y1="2080.95" x2="1086.18" y2="3280.94" stroke="white" stroke-width="60"/>
<line x1="1219" y1="3965.95" x2="1221.18" y2="5165.94" stroke="white" stroke-width="60"/>
<line x1="1939" y1="3977.95" x2="1941.18" y2="5177.94" stroke="white" stroke-width="60"/>
<line x1="1468" y1="9131.95" x2="1470.18" y2="10331.9" stroke="white" stroke-width="60"/>
<line x1="1750" y1="9131.95" x2="1752.18" y2="10331.9" stroke="white" stroke-width="60"/>
<line x1="1210.89" y1="5184.15" x2="315.888" y2="6362.15" stroke="white" stroke-width="60"/>
<line x1="1930.77" y1="5159.69" x2="2828.77" y2="6325.69" stroke="white" stroke-width="60"/>
<line x1="339.181" y1="7610.24" x2="1464.18" y2="9142.24" stroke="white" stroke-width="60"/>
<line x1="2812.9" y1="7561.73" x2="1746.9" y2="9148.73" stroke="white" stroke-width="60"/>
<line x1="321.995" y1="6343.46" x2="344.995" y2="7627.46" stroke="white" stroke-width="60"/>
<path d="M2816 6310.5L2816 7544.5" stroke="white" stroke-width="60"/>
</g>
<defs>
<clipPath id="clip0_48_44">
<rect width="2854" height="10332" fill="white"/>
</clipPath>
</defs>
</svg>
